<svg xmlns="http://www.w3.org/2000/svg" xmlns:svg="http://www.w3.org/2000/svg" xmlns:xlink="http://www.w3.org/1999/xlink" id="svg5289" width="450" height="450" version="1.1"><defs id="defs5291"><linearGradient id="linearGradient8787"><stop style="stop-color:#363636;stop-opacity:0" id="stop8789" offset="0"/><stop id="stop8819" offset=".54" style="stop-color:#5f5f5f;stop-opacity:.16064256"/><stop style="stop-color:#525252;stop-opacity:.54618472" id="stop8791" offset="1"/></linearGradient><linearGradient id="linearGradient8458"><stop style="stop-color:#f4f4f4;stop-opacity:1" id="stop8460" offset="0"/><stop style="stop-color:#262626;stop-opacity:1" id="stop8462" offset="1"/></linearGradient><linearGradient id="linearGradient8474"><stop id="stop8476" offset="0" style="stop-color:#262626;stop-opacity:1"/><stop style="stop-color:#c3c3c3;stop-opacity:1" id="stop8482" offset=".614"/><stop id="stop8478" offset="1" style="stop-color:#fff;stop-opacity:1"/></linearGradient><linearGradient id="linearGradient3529"><stop id="stop3531" offset="0" style="stop-color:#262626;stop-opacity:1"/><stop style="stop-color:#c3c3c3;stop-opacity:1" id="stop3533" offset=".614"/><stop id="stop3535" offset="1" style="stop-color:#fff;stop-opacity:1"/></linearGradient><linearGradient id="linearGradient3538"><stop id="stop3540" offset="0" style="stop-color:#262626;stop-opacity:1"/><stop style="stop-color:#c3c3c3;stop-opacity:1" id="stop3542" offset=".614"/><stop id="stop3544" offset="1" style="stop-color:#fff;stop-opacity:1"/></linearGradient><linearGradient id="linearGradient3547"><stop style="stop-color:#f4f4f4;stop-opacity:1" id="stop3549" offset="0"/><stop style="stop-color:#262626;stop-opacity:1" id="stop3551" offset="1"/></linearGradient><linearGradient id="linearGradient8803"><stop id="stop8805" offset="0" style="stop-color:#000;stop-opacity:1"/><stop style="stop-color:#1d1d1d;stop-opacity:1" id="stop8845" offset=".633"/><stop style="stop-color:#444;stop-opacity:1" id="stop8811" offset="1"/></linearGradient><linearGradient id="linearGradient3559"><stop id="stop3561" offset="0" style="stop-color:#262626;stop-opacity:1"/><stop style="stop-color:#c3c3c3;stop-opacity:1" id="stop3563" offset=".614"/><stop id="stop3565" offset="1" style="stop-color:#fff;stop-opacity:1"/></linearGradient><linearGradient id="linearGradient8938"><stop id="stop8940" offset="0" style="stop-color:#750000;stop-opacity:1"/><stop id="stop8942" offset="1" style="stop-color:#f60000;stop-opacity:1"/></linearGradient><linearGradient id="linearGradient3572"><stop id="stop3574" offset="0" style="stop-color:#750000;stop-opacity:1"/><stop id="stop3576" offset="1" style="stop-color:#f60000;stop-opacity:1"/></linearGradient><linearGradient id="linearGradient4214"><stop id="stop4216" offset="0" style="stop-color:#191919;stop-opacity:1"/><stop id="stop4218" offset="1" style="stop-color:#686868;stop-opacity:1"/></linearGradient><linearGradient id="linearGradient3583"><stop style="stop-color:#f4f4f4;stop-opacity:1" id="stop3585" offset="0"/><stop style="stop-color:#262626;stop-opacity:1" id="stop3587" offset="1"/></linearGradient><linearGradient id="linearGradient3590"><stop id="stop3592" offset="0" style="stop-color:#191919;stop-opacity:1"/><stop id="stop3594" offset="1" style="stop-color:#686868;stop-opacity:1"/></linearGradient><linearGradient id="linearGradient3597"><stop style="stop-color:#f4f4f4;stop-opacity:1" id="stop3599" offset="0"/><stop style="stop-color:#262626;stop-opacity:1" id="stop3601" offset="1"/></linearGradient><linearGradient id="linearGradient8928"><stop id="stop8930" offset="0" style="stop-color:#fff;stop-opacity:.81526107"/><stop id="stop8932" offset="1" style="stop-color:#fff;stop-opacity:0"/></linearGradient><linearGradient id="linearGradient8458-8"><stop style="stop-color:#f4f4f4;stop-opacity:1" id="stop8460-7" offset="0"/><stop style="stop-color:#262626;stop-opacity:1" id="stop8462-1" offset="1"/></linearGradient><linearGradient id="linearGradient8474-7"><stop id="stop8476-2" offset="0" style="stop-color:#262626;stop-opacity:1"/><stop style="stop-color:#c3c3c3;stop-opacity:1" id="stop8482-7" offset=".614"/><stop id="stop8478-2" offset="1" style="stop-color:#fff;stop-opacity:1"/></linearGradient><linearGradient id="linearGradient5568"><stop id="stop5570" offset="0" style="stop-color:#262626;stop-opacity:1"/><stop style="stop-color:#c3c3c3;stop-opacity:1" id="stop5572" offset=".614"/><stop id="stop5574" offset="1" style="stop-color:#fff;stop-opacity:1"/></linearGradient><linearGradient id="linearGradient5577"><stop id="stop5579" offset="0" style="stop-color:#262626;stop-opacity:1"/><stop style="stop-color:#c3c3c3;stop-opacity:1" id="stop5581" offset=".614"/><stop id="stop5583" offset="1" style="stop-color:#fff;stop-opacity:1"/></linearGradient><linearGradient id="linearGradient5586"><stop style="stop-color:#f4f4f4;stop-opacity:1" id="stop5588" offset="0"/><stop style="stop-color:#262626;stop-opacity:1" id="stop5590" offset="1"/></linearGradient><linearGradient id="linearGradient8803-2"><stop id="stop8805-6" offset="0" style="stop-color:#000;stop-opacity:1"/><stop style="stop-color:#1d1d1d;stop-opacity:1" id="stop8845-1" offset=".633"/><stop style="stop-color:#444;stop-opacity:1" id="stop8811-0" offset="1"/></linearGradient><linearGradient id="linearGradient5598"><stop id="stop5600" offset="0" style="stop-color:#262626;stop-opacity:1"/><stop style="stop-color:#c3c3c3;stop-opacity:1" id="stop5602" offset=".614"/><stop id="stop5604" offset="1" style="stop-color:#fff;stop-opacity:1"/></linearGradient><linearGradient id="linearGradient4214-1"><stop id="stop4216-0" offset="0" style="stop-color:#191919;stop-opacity:1"/><stop id="stop4218-3" offset="1" style="stop-color:#686868;stop-opacity:1"/></linearGradient><linearGradient id="linearGradient8458-0"><stop style="stop-color:#f4f4f4;stop-opacity:1" id="stop8460-4" offset="0"/><stop style="stop-color:#262626;stop-opacity:1" id="stop8462-4" offset="1"/></linearGradient><linearGradient id="linearGradient5820"><stop id="stop5822" offset="0" style="stop-color:#191919;stop-opacity:1"/><stop id="stop5824" offset="1" style="stop-color:#686868;stop-opacity:1"/></linearGradient><linearGradient id="linearGradient5827"><stop style="stop-color:#f4f4f4;stop-opacity:1" id="stop5829" offset="0"/><stop style="stop-color:#262626;stop-opacity:1" id="stop5831" offset="1"/></linearGradient><linearGradient id="linearGradient8928-4"><stop id="stop8930-4" offset="0" style="stop-color:#fff;stop-opacity:.81526107"/><stop id="stop8932-7" offset="1" style="stop-color:#fff;stop-opacity:0"/></linearGradient><linearGradient id="linearGradient8938-6"><stop id="stop8940-9" offset="0" style="stop-color:#750000;stop-opacity:1"/><stop id="stop8942-2" offset="1" style="stop-color:#f60000;stop-opacity:1"/></linearGradient><linearGradient id="linearGradient4341" x1="117.902" x2="117.902" y1="390.995" y2="433.057" gradientUnits="userSpaceOnUse" xlink:href="#linearGradient4214-9"/><linearGradient id="linearGradient4214-9"><stop id="stop4216-1" offset="0" style="stop-color:#191919;stop-opacity:1"/><stop id="stop4218-9" offset="1" style="stop-color:#686868;stop-opacity:1"/></linearGradient><linearGradient id="linearGradient4343" x1="117.902" x2="117.902" y1="390.995" y2="433.057" gradientUnits="userSpaceOnUse" xlink:href="#linearGradient8458-6"/><linearGradient id="linearGradient8458-6"><stop style="stop-color:#f4f4f4;stop-opacity:1" id="stop8460-9" offset="0"/><stop style="stop-color:#262626;stop-opacity:1" id="stop8462-3" offset="1"/></linearGradient><linearGradient id="linearGradient4345" x1="117.902" x2="117.902" y1="390.995" y2="433.057" gradientUnits="userSpaceOnUse" xlink:href="#linearGradient4214-9"/><linearGradient id="linearGradient6017"><stop id="stop6019" offset="0" style="stop-color:#191919;stop-opacity:1"/><stop id="stop6021" offset="1" style="stop-color:#686868;stop-opacity:1"/></linearGradient><linearGradient id="linearGradient4347" x1="117.902" x2="117.902" y1="390.995" y2="433.057" gradientUnits="userSpaceOnUse" xlink:href="#linearGradient8458-6"/><linearGradient id="linearGradient6024"><stop style="stop-color:#f4f4f4;stop-opacity:1" id="stop6026" offset="0"/><stop style="stop-color:#262626;stop-opacity:1" id="stop6028" offset="1"/></linearGradient><linearGradient id="linearGradient4349" x1="-29.837" x2="-29.837" y1="285.06" y2="342.606" gradientTransform="matrix(1.0065442,0,0,1.0065442,-303.68398,-334.36958)" gradientUnits="userSpaceOnUse" xlink:href="#linearGradient8928-3"/><linearGradient id="linearGradient8928-3"><stop id="stop8930-8" offset="0" style="stop-color:#fff;stop-opacity:.81526107"/><stop id="stop8932-0" offset="1" style="stop-color:#fff;stop-opacity:0"/></linearGradient><linearGradient id="linearGradient4191" x1="173.948" x2="287.511" y1="566.009" y2="566.009" gradientUnits="userSpaceOnUse" xlink:href="#linearGradient8458-87"/><linearGradient id="linearGradient8458-87"><stop style="stop-color:#f4f4f4;stop-opacity:1" id="stop8460-0" offset="0"/><stop style="stop-color:#262626;stop-opacity:1" id="stop8462-48" offset="1"/></linearGradient><linearGradient id="linearGradient4193" x1="73.66" x2="112.665" y1="475.462" y2="475.462" gradientUnits="userSpaceOnUse" spreadMethod="reflect" xlink:href="#linearGradient8474-0"/><linearGradient id="linearGradient8474-0"><stop id="stop8476-4" offset="0" style="stop-color:#262626;stop-opacity:1"/><stop style="stop-color:#c3c3c3;stop-opacity:1" id="stop8482-2" offset=".614"/><stop id="stop8478-9" offset="1" style="stop-color:#fff;stop-opacity:1"/></linearGradient><linearGradient id="linearGradient4195" x1="73.66" x2="112.665" y1="475.462" y2="475.462" gradientUnits="userSpaceOnUse" spreadMethod="reflect" xlink:href="#linearGradient8474-0"/><linearGradient id="linearGradient6154"><stop id="stop6156" offset="0" style="stop-color:#262626;stop-opacity:1"/><stop style="stop-color:#c3c3c3;stop-opacity:1" id="stop6158" offset=".614"/><stop id="stop6160" offset="1" style="stop-color:#fff;stop-opacity:1"/></linearGradient><linearGradient id="linearGradient4197" x1="73.66" x2="112.665" y1="475.462" y2="475.462" gradientUnits="userSpaceOnUse" spreadMethod="reflect" xlink:href="#linearGradient8474-0"/><linearGradient id="linearGradient6163"><stop id="stop6165" offset="0" style="stop-color:#262626;stop-opacity:1"/><stop style="stop-color:#c3c3c3;stop-opacity:1" id="stop6167" offset=".614"/><stop id="stop6169" offset="1" style="stop-color:#fff;stop-opacity:1"/></linearGradient><linearGradient id="linearGradient4199" x1="112.661" x2="112.661" y1="490.304" y2="423.605" gradientUnits="userSpaceOnUse" spreadMethod="pad" xlink:href="#linearGradient8458-87"/><linearGradient id="linearGradient6172"><stop style="stop-color:#f4f4f4;stop-opacity:1" id="stop6174" offset="0"/><stop style="stop-color:#262626;stop-opacity:1" id="stop6176" offset="1"/></linearGradient><radialGradient id="radialGradient4201" cx="230.73" cy="566.009" r="56.781" fx="229.005" fy="614.435" gradientTransform="matrix(1.0000012,0,0,1,-3.4359354e-4,0)" gradientUnits="userSpaceOnUse" xlink:href="#linearGradient8803-6"/><linearGradient id="linearGradient8803-6"><stop id="stop8805-1" offset="0" style="stop-color:#000;stop-opacity:1"/><stop style="stop-color:#1d1d1d;stop-opacity:1" id="stop8845-0" offset=".633"/><stop style="stop-color:#444;stop-opacity:1" id="stop8811-4" offset="1"/></linearGradient><linearGradient id="linearGradient4203" x1="179.309" x2="265.668" y1="598.827" y2="512.469" gradientUnits="userSpaceOnUse" xlink:href="#linearGradient8474-0"/><linearGradient id="linearGradient6184"><stop id="stop6186" offset="0" style="stop-color:#262626;stop-opacity:1"/><stop style="stop-color:#c3c3c3;stop-opacity:1" id="stop6188" offset=".614"/><stop id="stop6190" offset="1" style="stop-color:#fff;stop-opacity:1"/></linearGradient></defs><metadata id="metadata5294"/><g id="layer1" transform="translate(-166.79782,-180.44309)"><g id="g4483" transform="matrix(1.4999999,0,0,1.4999999,41.25127,-54.909874)"><rect id="rect4219" width="300" height="300" x="83.698" y="156.902" style="opacity:0;fill:gray;fill-opacity:.21176471;stroke:none"/><path id="path4020" d="m 287.51073,566.00861 c 0,31.35934 -25.42177,56.78111 -56.78112,56.78111 -31.35934,0 -56.78111,-25.42177 -56.78111,-56.78111 0,-31.35935 25.42177,-56.78112 56.78111,-56.78112 31.35935,0 56.78112,25.42177 56.78112,56.78112 z" transform="matrix(0,2.6417234,-2.6417234,0,1728.9359,-302.62183)" style="fill:url(#linearGradient4191);fill-opacity:1;fill-rule:evenodd;stroke:none"/><g id="g4022" transform="matrix(2.2413432,0,0,2.2413432,-79.416871,-497.39282)"><path id="path4024" d="m 146.00858,481.36497 c -20.63559,11.91397 -46.059688,11.91397 -66.695279,0 l 33.347639,-57.75981 z" transform="translate(27.038627,-64.892704)" style="fill:url(#linearGradient4193);fill-opacity:1;fill-rule:evenodd;stroke:none"/><path style="fill:url(#linearGradient4195);fill-opacity:1;fill-rule:evenodd;stroke:none" id="path4026" d="m 129.92295,488.02786 c -11.30854,3.03011 -23.21547,3.03011 -34.524016,0 l 17.262006,-64.4227 z" transform="matrix(0.258819,0.9659258,-0.9659258,0.258819,519.71194,140.25326)"/><path id="path4028" d="m 129.92295,488.02786 c -11.30854,3.03011 -23.21547,3.03011 -34.524016,0 l 17.262006,-64.4227 z" transform="matrix(0.2588191,-0.9659258,0.9659258,0.2588191,-298.63039,357.89749)" style="fill:url(#linearGradient4197);fill-opacity:1;fill-rule:evenodd;stroke:none"/><path style="fill:url(#linearGradient4199);fill-opacity:1;fill-rule:evenodd;stroke:none" id="path4030" d="M 170.42075,456.9528 C 152.00336,488.85267 111.21316,499.78237 79.313301,481.36497 69.174336,475.51124 60.754866,467.09177 54.901133,456.9528 L 112.66094,423.60516 z" transform="matrix(-1,-5.9831005e-8,5.9831005e-8,-1,252.36051,782.31762)"/></g><path style="fill:url(#radialGradient4201);fill-opacity:1;fill-rule:nonzero;stroke:none" id="path4032" d="m 287.51073,566.00861 c 0,31.35934 -25.42177,56.78111 -56.78112,56.78111 -31.35934,0 -56.78111,-25.42177 -56.78111,-56.78111 0,-31.35935 25.42177,-56.78112 56.78111,-56.78112 31.35935,0 56.78112,25.42177 56.78112,56.78112 z" transform="matrix(2.404329,0,0,2.404329,-321.0521,-1053.9689)"/><path style="fill:none;stroke:url(#linearGradient4203);stroke-width:2.03006411;stroke-linecap:round;stroke-linejoin:round;stroke-miterlimit:4;stroke-opacity:1;stroke-dasharray:none;stroke-dashoffset:0" id="path4034" d="m 287.51073,566.00861 c 0,31.35934 -25.42177,56.78111 -56.78112,56.78111 -31.35934,0 -56.78111,-25.42177 -56.78111,-56.78111 0,-31.35935 25.42177,-56.78112 56.78111,-56.78112 31.35935,0 56.78112,25.42177 56.78112,56.78112 z" transform="matrix(-2.3684483,0,0,-2.3684483,780.16896,1647.4642)"/><g id="g5105" transform="matrix(1.8987271,1.0962306,-1.0962306,1.8987271,894.94058,618.31498)"><g id="g5083" transform="matrix(0.8660254,-0.5,0.5,0.8660254,-277.86177,-277.17399)"><path style="fill:none;stroke:#fffffe;stroke-width:1.89230263;stroke-linecap:butt;stroke-linejoin:round;stroke-miterlimit:4;stroke-opacity:1;stroke-dasharray:none;stroke-dashoffset:0" id="path5071" d="m -539.92657,-49.64357 c -20.29224,11.715727 -46.23982,4.763092 -57.95555,-15.529146 -3.72369,-6.449629 -5.68406,-13.765814 -5.68406,-21.213204 l 42.42641,2e-6 z" transform="matrix(1.0569134,0,0,1.0569134,388.18018,336.64575)"/><rect style="fill:#fff;fill-opacity:1;fill-rule:nonzero;stroke:none" id="rect5075" width="2.162" height="11.474" x="-205.977" y="279.413"/><rect id="rect5077" width="2.162" height="11.474" x="-55.854" y="348.991" transform="matrix(0.8660254,0.5,-0.5,0.8660254,0,0)" style="fill:#fff;fill-opacity:1;fill-rule:nonzero;stroke:none"/><rect style="fill:#fff;fill-opacity:1;fill-rule:nonzero;stroke:none" id="rect5079" width="2.162" height="11.474" x="108.945" y="334.187" transform="matrix(0.5,0.8660254,-0.8660254,0.5,0,0)"/></g><g id="g5091" transform="matrix(-0.8660254,0.5,-0.5,-0.8660254,-387.40868,331.28536)"><path id="path5093" d="m -539.92657,-49.64357 c -20.29224,11.715727 -46.23982,4.763092 -57.95555,-15.529146 -3.72369,-6.449629 -5.68406,-13.765814 -5.68406,-21.213204 l 42.42641,2e-6 z" transform="matrix(1.0569134,0,0,1.0569134,388.18018,336.64575)" style="fill:none;stroke:#fffffe;stroke-width:1.89230263;stroke-linecap:butt;stroke-linejoin:round;stroke-miterlimit:4;stroke-opacity:1;stroke-dasharray:none;stroke-dashoffset:0"/><rect id="rect5097" width="2.162" height="11.474" x="-205.977" y="279.413" style="fill:#fff;fill-opacity:1;fill-rule:nonzero;stroke:none"/><rect style="fill:#fff;fill-opacity:1;fill-rule:nonzero;stroke:none" id="rect5099" width="2.162" height="11.474" x="-55.854" y="348.991" transform="matrix(0.8660254,0.5,-0.5,0.8660254,0,0)"/><rect id="rect5101" width="2.162" height="11.474" x="108.945" y="334.187" transform="matrix(0.5,0.8660254,-0.8660254,0.5,0,0)" style="fill:#fff;fill-opacity:1;fill-rule:nonzero;stroke:none"/></g></g><path id="text5227" d="m 186.30155,199.85076 -15.02275,0 0,0.8156 0.65774,0.0789 c 1.3681,0.18417 1.71012,0.73667 1.71012,2.89404 l 0,10.33965 c 0,2.15739 -0.34202,2.70988 -1.71012,2.89405 l -0.65774,0.0789 0,0.81559 15.33846,0 2.39417,-5.60392 -0.8156,-0.36835 c -2.86774,3.68333 -5.02512,4.84096 -8.94524,4.84096 -1.31548,0 -2.21,-0.23679 -2.63095,-0.73666 -0.23679,-0.31572 -0.34203,-0.73668 -0.34203,-1.57858 l 0,-5.55131 1.94691,0 c 2.07845,0 2.97298,0.92084 3.23607,3.39394 l 0.89453,0 0,-7.86655 -0.89453,0 c -0.36833,2.73618 -0.94714,3.3413 -3.18345,3.3413 l -1.99953,0 0,-4.47262 c 0,-1.68381 0.68405,-2.18368 2.99929,-2.18368 3.5781,0 5.57762,0.99976 7.9981,3.94642 l 0.8419,-0.34202 -1.81535,-4.73573" style="font-size:12px;font-style:normal;font-variant:normal;font-weight:400;font-stretch:normal;text-align:start;line-height:125%;writing-mode:lr-tb;text-anchor:start;fill:#fff;fill-opacity:1;stroke:none;font-family:URW Bookman L;-inkscape-font-specification:URW Bookman L"/><path id="text5231" d="m 350.77204,296.1911 -14.49655,0 0,0.8156 0.65774,0.0789 c 1.3681,0.18417 1.71012,0.73667 1.71012,2.89405 l 0,10.33965 c 0,2.15737 -0.34202,2.70987 -1.71012,2.89405 l -0.65774,0.0789 0,0.8156 7.57714,0 0,-0.8156 -0.8682,-0.0789 c -1.34179,-0.13156 -1.71012,-0.76298 -1.71012,-2.89405 l 0,-5.20929 1.73642,0 c 1.28917,0 2.10477,0.31571 2.65727,0.99975 0.39464,0.49989 0.55249,0.99978 0.73667,2.36787 l 0.81559,0 0,-7.78762 -0.81559,0 c -0.13156,1.18393 -0.23679,1.6575 -0.49989,2.13107 -0.49987,0.86822 -1.23655,1.15761 -2.89405,1.15761 l -1.73642,0 0,-4.10428 c 0,-1.15761 0.13154,-1.68381 0.44725,-1.99953 0.36835,-0.36833 1.34179,-0.57881 2.49942,-0.57881 3.18344,0 5.31451,1.0787 7.60345,3.81489 l 0.8419,-0.42095 -1.89429,-4.49893" style="font-size:12px;font-style:normal;font-variant:normal;font-weight:400;font-stretch:normal;text-align:start;line-height:125%;writing-mode:lr-tb;text-anchor:start;fill:#fff;fill-opacity:1;stroke:none;font-family:URW Bookman L;-inkscape-font-specification:URW Bookman L"/><path id="path5394" d="m 258.39434,256.00333 c -0.22363,-0.28429 -0.31374,-0.57241 -0.24906,-0.79634 0.13176,-0.45619 0.69483,-0.93765 1.09667,-0.93765 0.30751,0 0.31674,-0.3422 0.31733,-11.77744 6.2e-4,-11.51711 0.009,-11.7897 0.33898,-12.3324 0.59962,-0.98347 0.94403,-1.03878 6.40295,-1.02826 5.32088,0.01 5.80432,0.0768 6.40229,0.88258 0.33087,0.44577 0.35402,0.71615 0.40322,4.7115 l 0.0522,4.23858 0.99663,0.27708 c 1.17296,0.32611 2.12752,1.17159 2.48879,2.20443 0.16422,0.46963 0.26388,1.94456 0.33398,4.94436 0.0715,3.06448 0.16224,4.38445 0.32012,4.66127 0.57734,1.01228 2.3847,1.3731 3.48174,0.6951 1.43415,-0.88637 1.61424,-2.23445 0.77152,-5.7755 -0.6594,-2.7707 -0.8182,-3.81046 -1.02434,-6.70601 -0.19008,-2.67023 -0.43886,-3.65682 -1.38063,-5.47526 -0.62172,-1.20047 -1.99964,-2.74741 -2.89379,-3.24877 -0.29372,-0.16468 -0.29537,-0.2022 -0.0316,-0.71251 0.15325,-0.29627 0.37092,-0.53795 0.48381,-0.53709 0.49819,0.004 1.98185,1.06462 3.00303,2.14715 1.13122,1.19913 2.22752,2.87447 2.75222,4.20581 l 0.29094,0.73826 -0.51929,0.464 -0.5193,0.46399 0.16158,2.29339 c 0.16641,2.36242 0.32935,3.36529 1.06155,6.53469 0.90053,3.89789 0.34233,5.91868 -1.91799,6.94341 -0.95826,0.43444 -2.36281,0.44912 -3.27613,0.0343 -0.70601,-0.32069 -1.48451,-1.12003 -1.80654,-1.85488 -0.11423,-0.26059 -0.22271,-2.13697 -0.27689,-4.78748 -0.0809,-3.95343 -0.11992,-4.40992 -0.42073,-4.90734 -0.30179,-0.49908 -1.41765,-1.21191 -1.89711,-1.21191 -0.14427,0 -0.20675,1.80804 -0.24047,6.95756 -0.0452,6.89221 -0.0423,6.95754 0.29438,6.95749 0.60707,-1e-4 1.08511,0.4727 1.08511,1.0732 0,1.13787 0.234,1.1062 -8.174,1.1062 l -7.56079,0 -0.35042,-0.44547 z m 12.56456,-16.99017 c 0.31347,-0.31349 0.33529,-0.55884 0.33529,-3.77214 0,-3.21331 -0.0219,-3.45864 -0.33529,-3.77214 -0.31811,-0.3181 -0.55884,-0.3353 -4.69422,-0.3353 -4.13537,0 -4.37611,0.0171 -4.69421,0.3353 -0.3135,0.3135 -0.33529,0.55883 -0.33529,3.77214 0,3.2133 0.0219,3.45865 0.33529,3.77214 0.3181,0.3181 0.55884,0.3353 4.69421,0.3353 4.13538,0 4.37611,-0.0171 4.69422,-0.3353 z" style="fill:#fff"/><g id="g5457" transform="matrix(0.23333685,0,0,0.23333685,438.5784,213.75036)"><path style="fill:#fff;fill-opacity:1;fill-rule:nonzero;stroke:none" id="path5398" d="m -1204.5625,326.25 c -3.9174,0 -7.0938,3.17638 -7.0937,7.09375 l 0,58.5625 c 0,0.32281 0.052,0.65765 0.094,0.96875 -3.9693,2.38504 -6.6563,6.72263 -6.6563,11.6875 0,7.52766 6.1286,13.625 13.6563,13.625 7.5277,0 13.6251,-6.09734 13.625,-13.625 0,-4.96487 -2.6557,-9.30246 -6.625,-11.6875 0.041,-0.31054 0.062,-0.64655 0.062,-0.96875 l 0,-8.125 c 0.4805,0.0512 0.9569,0.0625 1.4688,0.0625 l 16.1874,0 c 3.9174,0 7.0625,-1.57258 7.0626,-3.53125 -10e-5,-1.95869 -3.1452,-3.53124 -7.0626,-3.53125 l -16.1874,0 c -0.5121,0 -0.9882,0.0113 -1.4688,0.0625 l 0,-11.75 c 0.4805,0.0512 0.9569,0.0625 1.4688,0.0625 l 16.1874,0 c 3.9174,0 7.0625,-1.57258 7.0626,-3.53125 -10e-5,-1.95869 -3.1452,-3.53124 -7.0626,-3.53125 l -16.1874,0 c -0.5121,0 -0.9882,0.0113 -1.4688,0.0625 l 0,-11.75 c 0.4805,0.0512 0.9569,0.0625 1.4688,0.0625 l 16.1874,0 c 3.9174,0 7.0625,-1.57258 7.0626,-3.53125 -10e-5,-1.95869 -3.1452,-3.53124 -7.0626,-3.53125 l -16.1874,0 c -0.5121,0 -0.9882,0.0113 -1.4688,0.0625 l 0,-6.125 c 0,-3.91737 -3.1452,-7.09374 -7.0625,-7.09375 z" transform="translate(168.86052,254.45257)"/><path style="fill:none;stroke:#000;stroke-width:1px;stroke-linecap:butt;stroke-linejoin:miter;stroke-opacity:1" id="path5415" d="m -1035.5168,705.97288 c -0.3367,0 -0.6734,0 0,0 z"/><path id="path5437" d="m -1099.6032,680.71907 c 0,0 14.2388,9.99999 21.2973,10 7.0585,10e-6 14.2389,-10.00001 21.2974,-10 7.0585,10e-6 14.2388,9.99999 21.2973,10 7.0585,10e-6 14.2389,-10 21.2974,-10 7.0585,0 14.2389,10.00001 21.2974,10 7.0585,-10e-6 21.2973,-10 21.2973,-10" style="fill:none;stroke:#fff;stroke-width:10;stroke-linecap:round;stroke-linejoin:miter;stroke-miterlimit:4;stroke-opacity:1;stroke-dasharray:none"/><g id="g5441" transform="translate(-9.0561338,0)"><path id="path5433" d="m -1005.1051,652.93987 c 7.05845,0 14.23885,10.00002 21.29732,10 7.0585,-1e-5 21.2973,-10 21.2973,-10" style="fill:none;stroke:#fff;stroke-width:10;stroke-linecap:round;stroke-linejoin:miter;stroke-miterlimit:4;stroke-opacity:1;stroke-dasharray:none"/><path id="path5439" d="m -1090.7996,652.93988 c 0,0 14.2388,9.99999 21.2973,10 7.0585,10e-6 14.2389,-10.00001 21.2974,-10" style="fill:none;stroke:#fff;stroke-width:10;stroke-linecap:round;stroke-linejoin:miter;stroke-miterlimit:4;stroke-opacity:1;stroke-dasharray:none"/></g></g><path id="text5465" d="m 135.43767,295.61622 -0.86821,0 -0.5525,1.105 c -1.55226,-1.18393 -3.15714,-1.6838 -5.41976,-1.6838 -2.10477,0 -4.57786,1.15761 -6.18274,2.89403 -1.60489,1.71012 -2.4731,4.02537 -2.4731,6.49846 0,5.26191 3.97274,9.20834 9.28726,9.20834 3.39393,0 6.07751,-1.49965 8.02441,-4.52523 l -1.13131,-0.63144 c -0.76297,1.13131 -1.28916,1.71012 -2.15738,2.34154 -1.26286,0.94715 -2.97298,1.55228 -4.34107,1.55228 -1.63119,0 -3.52548,-0.86822 -4.65679,-2.13108 -1.23655,-1.34179 -1.9206,-3.47286 -1.9206,-5.84072 0,-4.65679 2.57834,-8.10333 6.0512,-8.10333 1.9469,0 3.89381,1.105 5.13036,2.89405 0.49988,0.73666 0.81559,1.28917 1.63119,2.7625 l 0.8419,0 -1.26286,-6.3406" style="font-size:12px;font-style:normal;font-variant:normal;font-weight:400;font-stretch:normal;text-align:start;line-height:125%;writing-mode:lr-tb;text-anchor:start;fill:#fff;fill-opacity:1;stroke:none;font-family:URW Bookman L;-inkscape-font-specification:URW Bookman L"/><path id="text5469" d="m 284.33462,398.61678 0,-3.92011 c 0,-2.15738 0.34202,-2.70989 1.71012,-2.89405 l 0.65774,-0.0789 0,-0.8156 -7.36667,0 0,0.8156 0.65774,0.0789 c 1.36809,0.18416 1.71012,0.73667 1.71012,2.89405 l 0,10.33965 c 0,2.15737 -0.34203,2.70988 -1.71012,2.89405 l -0.65774,0.0789 0,0.8156 7.36667,0 0,-0.8156 -0.65774,-0.0789 c -1.3681,-0.18417 -1.71012,-0.73668 -1.71012,-2.89405 l 0,-5.28823 9.41881,0 0,5.28823 c 0,2.15737 -0.34202,2.70988 -1.71012,2.89405 l -0.65774,0.0789 0,0.8156 7.36667,0 0,-0.8156 -0.65773,-0.0789 c -1.3681,-0.18417 -1.71012,-0.73668 -1.71012,-2.89405 l 0,-10.33965 c 0,-2.15738 0.34202,-2.70989 1.71012,-2.89405 l 0.65773,-0.0789 0,-0.8156 -7.36667,0 0,0.8156 0.65774,0.0789 c 1.3681,0.18416 1.71012,0.73667 1.71012,2.89405 l 0,3.92011 -9.41881,0" style="font-size:12px;font-style:normal;font-variant:normal;font-weight:400;font-stretch:normal;text-align:start;line-height:125%;writing-mode:lr-tb;text-anchor:start;fill:#fff;fill-opacity:1;stroke:none;font-family:URW Bookman L;-inkscape-font-specification:URW Bookman L"/></g></g></svg>